<svg version="1.2" baseProfile="tiny-ps" xmlns="http://www.w3.org/2000/svg" viewBox="0 0 1360 900" width="1360" height="900">
	<title>21Z_2105</title>
	<style>
		tspan { white-space:pre }
		.shp0 { fill: #ffffff } 
		.shp1 { opacity: 0.2;fill: #e5e9ff } 
	</style>
	<g id="Layer 1">
		<g id="&lt;Group&gt;">
			<path id="&lt;Path&gt;" class="shp0" d="M1282.15 77L77.85 77C62.47 77 50 89.53 50 104.99L50 889.01C50 904.47 62.47 917 77.85 917L1282.15 917C1297.53 917 1310 904.47 1310 889.01L1310 104.99C1310 89.53 1297.53 77 1282.15 77Z" />
			<path id="&lt;Compound Path&gt;" fill-rule="evenodd" class="shp1" d="M1310 291.71L1016.48 459.59L1310 629.61L1310 661.71L1303.63 658.36L1116.11 764.37L1310 875.8L1310 889.01C1310 895.06 1308.07 900.65 1304.83 905.22L1053.19 760.95L891.8 853.83L1001.21 917L945.21 917L677.03 762.16L475.63 878.36L383.57 823.61L221.55 917L165.58 917L557.18 691.62L50 400L50 367.68L585.23 675.48L746.03 582.93L50 181.39L50 149.22L495.4 407.62L681.64 300.43L296.01 77L352.11 77L709.71 284.28L1073.37 77L1129.54 77L737.78 300.43L988.41 443.44L1310 259.43L1310 291.71ZM774.1 566.78L960.34 459.59L709.71 316.59L523.46 423.77L774.1 566.78ZM649.01 745.98L585.21 707.8L411.62 807.47L475.42 845.65L649.01 745.98ZM1025.12 744.8L774.1 599.08L613.25 691.66L863.78 837.65L1025.12 744.8ZM988.41 475.74L802.16 582.93L1088.05 748.22L1274.29 641.03L988.41 475.74Z" />
			<path id="&lt;Compound Path&gt;" fill-rule="evenodd" class="shp0" d="M1265.9 119.8L1265.27 120.44C1264.81 120.9 1264.06 120.9 1263.6 120.44L1259.93 116.76C1259.54 116.37 1259.48 115.79 1259.74 115.34L1258.67 114.26C1256.53 115.88 1253.49 115.72 1251.54 113.77C1249.42 111.65 1249.42 108.2 1251.54 106.08C1253.67 103.95 1257.11 103.95 1259.24 106.08C1261.18 108.02 1261.34 111.07 1259.73 113.2L1260.8 114.28C1261.25 114.02 1261.84 114.08 1262.22 114.46L1265.9 118.14C1266.36 118.6 1266.36 119.34 1265.9 119.8ZM1257.92 107.39C1256.52 105.99 1254.25 105.99 1252.85 107.39C1251.45 108.79 1251.45 111.06 1252.85 112.46C1254.25 113.86 1256.52 113.86 1257.92 112.46C1259.32 111.06 1259.32 108.79 1257.92 107.39Z" />
		</g>
	</g>
</svg>